<svg xmlns="http://www.w3.org/2000/svg" viewBox="0 0 1000 938" fill="currentColor" fill-rule="evenodd"><path d="M1000 632C1000 632 1000 632 1000 622C1000 622 1000 622 1000 622C1000 622 1000 622 1000 622C854 377 854 377 854 377C844 367 844 367 833 367C792 367 792 367 792 367C792 20 792 20 792 20C792 10 781 0 771 0C229 0 229 0 229 0C219 0 208 10 208 20C208 367 208 367 208 367C167 367 167 367 167 367C156 367 156 367 146 377C0 622 0 622 0 622C0 622 0 622 0 622C0 622 0 622 0 622C0 632 0 632 0 632C0 632 0 632 0 632C0 917 0 917 0 917C0 927 10 938 21 938C979 938 979 938 979 938C990 938 1000 927 1000 917C1000 632 1000 632 1000 632C1000 632 1000 632 1000 632ZM177 408C208 408 208 408 208 408C208 550 208 550 208 550C208 560 219 571 229 571C240 571 250 560 250 550C250 41 250 41 250 41C750 41 750 41 750 41C750 550 750 550 750 550C750 560 760 571 771 571C781 571 792 560 792 550C792 408 792 408 792 408C823 408 823 408 823 408C948 611 948 611 948 611C688 611 688 611 688 611C677 611 667 622 667 632C667 673 667 673 667 673C667 703 635 734 604 734C417 734 417 734 417 734C385 734 354 703 354 673C354 632 354 632 354 632C354 622 344 611 333 611C52 611 52 611 52 611L177 408ZM958 897C42 897 42 897 42 897C42 652 42 652 42 652C313 652 313 652 313 652C313 673 313 673 313 673C313 734 354 774 417 774C604 774 604 774 604 774C667 774 708 734 708 673C708 652 708 652 708 652C958 652 958 652 958 652L958 897Z"/><path d="M500 388C479 388 459 368 459 348C459 337 448 327 438 327C428 327 418 337 418 348C418 388 448 419 479 429C479 450 479 450 479 450C479 460 490 470 500 470C510 470 521 460 521 450C521 429 521 429 521 429C552 419 583 388 583 348C583 296 541 266 500 266C479 266 459 245 459 225C459 205 479 184 500 184C521 184 541 205 541 225C541 235 552 245 562 245C572 245 583 235 583 225C583 184 552 154 521 143C521 123 521 123 521 123C521 113 510 103 500 103C490 103 479 113 479 123C479 143 479 143 479 143C448 154 418 184 418 225C418 266 459 307 500 307C521 307 541 327 541 348C541 368 521 388 500 388Z"/></svg>