<svg xmlns="http://www.w3.org/2000/svg" viewBox="0 0 688 1000" fill="currentColor" fill-rule="evenodd"><path d="M344 688C153 688 0 535 0 344C0 156 153 0 344 0C531 0 688 156 688 344C688 535 531 688 344 688ZM344 42C177 42 42 177 42 344C42 511 177 646 344 646C511 646 646 511 646 344C646 177 511 42 344 42Z"/><path d="M343 791C263 791 187 770 121 729C114 722 110 712 117 702C121 691 135 688 145 695C204 733 270 750 343 750C413 750 479 733 538 695C548 688 562 691 569 702C573 712 573 722 562 729C496 770 420 791 343 791Z"/><path d="M343 1000C329 1000 322 993 322 979C322 772 322 772 322 772C322 762 329 751 343 751C353 751 364 762 364 772C364 979 364 979 364 979C364 993 353 1000 343 1000Z"/><path d="M488 250C488 273 470 291 447 291C424 291 406 273 406 250C406 227 424 209 447 209C470 209 488 227 488 250Z"/><path d="M613 291C613 314 594 333 572 333C549 333 531 314 531 291C531 268 549 249 572 249C594 249 613 268 613 291Z"/><path d="M573 417C573 439 554 458 531 458C507 458 488 439 488 417C488 394 507 376 531 376C554 376 573 394 573 417Z"/><path d="M488 500C488 523 470 542 447 542C424 542 406 523 406 500C406 477 424 458 447 458C470 458 488 477 488 500Z"/><path d="M364 542C364 566 345 585 322 585C298 585 279 566 279 542C279 519 298 500 322 500C345 500 364 519 364 542Z"/><path d="M446 374C446 397 428 415 405 415C382 415 364 397 364 374C364 352 382 333 405 333C428 333 446 352 446 374Z"/><path d="M322 417C322 439 303 458 281 458C258 458 239 439 239 417C239 394 258 376 281 376C303 376 322 394 322 417Z"/></svg>