<svg xmlns="http://www.w3.org/2000/svg" viewBox="0 0 970 1000" fill="currentColor" fill-rule="evenodd"><path d="M93 984C86 984 76 984 69 980C24 966 0 918 14 873C300 69 300 69 300 69C314 24 363 0 407 14C428 21 445 38 456 59C466 76 466 100 459 121C173 925 173 925 173 925C166 946 152 963 131 973C121 980 107 984 93 984ZM380 52C363 52 345 66 338 83C52 887 52 887 52 887C45 908 59 932 79 939C90 942 104 942 114 939C124 932 131 925 135 911C135 911 135 911 135 911C421 107 421 107 421 107C425 97 425 86 418 76C414 66 404 59 394 55C390 52 383 52 380 52Z"/><path d="M590 1000C579 1000 573 1000 562 997C541 990 524 976 514 955C503 935 503 914 510 890C797 86 797 86 797 86C811 45 859 21 901 35C946 49 970 97 956 142C669 945 669 945 669 945C662 966 649 983 628 993C614 1000 604 1000 590 1000ZM876 73C859 73 842 83 835 100C548 903 548 903 548 903C545 914 545 928 552 938C555 948 566 955 576 959C586 962 600 962 611 955C617 952 628 941 631 931C631 931 631 931 631 931C918 128 918 128 918 128C925 104 911 80 890 73C883 73 880 73 876 73Z"/><path d="M548 855L196 818L200 776L552 814L548 855Z"/><path d="M606 692L256 653L259 611L611 653L606 692Z"/><path d="M669 527L317 487L322 445L674 487L669 527Z"/><path d="M725 361L373 322L375 280L727 322L725 361Z"/><path d="M783 196L431 154L436 114L790 154L783 196Z"/></svg>