<svg xmlns="http://www.w3.org/2000/svg" viewBox="0 0 1000 833" fill="currentColor" fill-rule="evenodd"><path d="M478 833C478 833 475 833 471 833C360 778 291 667 291 545C291 188 291 188 291 188C291 177 301 167 312 167C326 167 333 177 333 188C333 545 333 545 333 545C333 653 395 747 488 795C499 802 502 813 499 823C495 830 488 833 478 833Z"/><path d="M917 458C896 458 896 458 896 458C886 458 876 451 876 437C876 270 876 270 876 270C876 259 886 249 896 249C917 249 917 249 917 249C965 249 1000 287 1000 332C1000 374 1000 374 1000 374C1000 423 965 458 917 458ZM917 416C921 416 921 416 921 416L917 416ZM917 291C917 416 917 416 917 416C941 416 959 399 959 374C959 332 959 332 959 332C959 312 941 291 917 291Z"/><path d="M895 707C895 707 891 707 888 707C874 700 863 696 850 689C687 613 531 540 187 540C146 540 146 540 146 540C66 540 0 478 0 395C0 312 0 312 0 312C0 232 66 166 146 166C187 166 187 166 187 166C531 166 683 97 850 21C863 14 874 10 888 3C895 0 902 0 909 3C912 7 915 14 915 21C915 686 915 686 915 686C915 693 912 700 909 703C905 707 902 707 895 707ZM146 208C90 208 42 256 42 312C42 395 42 395 42 395C42 454 90 499 146 499C187 499 187 499 187 499C538 499 697 575 867 651C870 651 874 655 874 655C874 55 874 55 874 55C874 55 870 59 867 59C697 135 538 208 187 208L146 208Z"/></svg>